<svg xmlns="http://www.w3.org/2000/svg" viewBox="0 0 512 512">
  <defs>
    <linearGradient id="grad1" x1="0%" y1="0%" x2="100%" y2="100%">
      <stop offset="0%" style="stop-color:#3b82f6;stop-opacity:1" />
      <stop offset="100%" style="stop-color:#1d4ed8;stop-opacity:1" />
    </linearGradient>
  </defs>
  <path d="M256 0C114.6 0 0 114.6 0 256s114.6 256 256 256 256-114.6 256-256S397.4 0 256 0zm0 472c-119.3 0-216-96.7-216-216S136.7 40 256 40s216 96.7 216 216-96.7 216-216 216z" fill="#0f172a" opacity="0.0"/>
  
  <!-- Shield Shape -->
  <path d="M256 48C148 48 56 140 56 256c0 116 92 208 200 208s200-92 200-208C456 140 364 48 256 48zm0 376c-92.8 0-168-75.2-168-168S163.2 88 256 88s168 75.2 168 168-75.2 168-168 168z" fill="url(#grad1)"/>
  
  <!-- Circuit/G Monogram -->
  <path d="M256 136c-66.3 0-120 53.7-120 120 0 66.3 53.7 120 120 120s120-53.7 120-120h-40c0 44.2-35.8 80-80 80s-80-35.8-80-80 35.8-80 80-80c21.3 0 40.7 8.3 55.1 21.9l29.1-28.3C318.5 147.9 288.9 136 256 136z" fill="#ffffff"/>
  <rect x="236" y="196" width="40" height="40" rx="4" fill="#ffffff"/>
</svg>
